<svg id="Layer_1" data-name="Layer 1" xmlns="http://www.w3.org/2000/svg" viewBox="0 0 4311.5 2874.33"><defs><style>.cls-1{fill:#e6e6e6;}.cls-2{fill:#fff;}</style></defs><title>Artboard 1</title><g id="Backclouds"><circle class="cls-1" cx="75" cy="2613.5" r="132"/><circle class="cls-1" cx="268" cy="2517.5" r="146"/><circle class="cls-1" cx="459" cy="2447.5" r="157"/><circle class="cls-1" cx="709" cy="2498.5" r="157"/><circle class="cls-1" cx="849" cy="2418.5" r="157"/><circle class="cls-1" cx="1214" cy="2418.5" r="157"/><circle class="cls-1" cx="1023" cy="2447.5" r="157"/><circle class="cls-1" cx="1371" cy="2624.5" r="157"/><circle class="cls-1" cx="1578" cy="2575.5" r="157"/><circle class="cls-1" cx="1862.5" cy="2529" r="179.5"/><circle class="cls-1" cx="2090.5" cy="2639" r="136.5"/><circle class="cls-1" cx="2252.5" cy="2607" r="125.5"/><circle class="cls-1" cx="2466" cy="2589.5" r="130"/><circle class="cls-1" cx="2670.5" cy="2651" r="117.5"/><circle class="cls-1" cx="2829" cy="2662.5" r="130"/><circle class="cls-1" cx="3069" cy="2632.5" r="149"/><circle class="cls-1" cx="3305" cy="2598.5" r="156"/><circle class="cls-1" cx="3569" cy="2555.5" r="183"/><circle class="cls-1" cx="3855" cy="2607.5" r="130"/><circle class="cls-1" cx="3949.5" cy="2442" r="108.5"/><circle class="cls-1" cx="4167" cy="2435.5" r="172"/></g><g id="Front_clouds" data-name="Front clouds"><circle class="cls-2" cx="985.49" cy="2694.61" r="275.78"/><circle class="cls-2" cx="1181.3" cy="2554.28" r="275.78"/><circle class="cls-2" cx="1435.87" cy="2694.61" r="275.78"/><circle class="cls-2" cx="1732.86" cy="2831.69" r="275.78"/><circle class="cls-2" cx="659.12" cy="2864.32" r="275.78"/><circle class="cls-2" cx="2090.23" cy="2768.05" r="179.5"/><circle class="cls-2" cx="2116.34" cy="2924.7" r="179.5"/><circle class="cls-2" cx="1398.34" cy="2950.81" r="179.5"/><circle class="cls-2" cx="1104.61" cy="2927.96" r="179.5"/><circle class="cls-2" cx="905.53" cy="2898.59" r="179.5"/><circle class="cls-2" cx="2361.11" cy="2722.35" r="179.5"/><circle class="cls-2" cx="301.75" cy="2751.73" r="179.5"/><circle class="cls-2" cx="272.38" cy="2882.27" r="179.5"/><circle class="cls-2" cx="122.5" cy="2830" r="179.5"/><circle class="cls-2" cx="2403.54" cy="2934.49" r="179.5"/><circle class="cls-2" cx="2633.5" cy="2843" r="179.5"/><circle class="cls-2" cx="1909.1" cy="2655.45" r="119.12"/><circle class="cls-2" cx="2753.08" cy="2752.22" r="119.12"/><circle class="cls-2" cx="3040.3" cy="2830.01" r="167.7"/><circle class="cls-2" cx="3447.74" cy="2638.62" r="168.88"/><circle class="cls-2" cx="4107.89" cy="2544.85" r="149.65"/><circle class="cls-2" cx="3329.05" cy="2757.67" r="212.83"/><circle class="cls-2" cx="2839.4" cy="2807.18" r="119.12"/><circle class="cls-2" cx="3576.81" cy="2830.45" r="119.12"/><circle class="cls-2" cx="3752.22" cy="2831.73" r="210.77"/><circle class="cls-2" cx="1399.97" cy="2469.42" r="119.12"/><circle class="cls-2" cx="858.09" cy="2550.13" r="199.11"/><circle class="cls-2" cx="4048.77" cy="2776.2" r="150.23"/><circle class="cls-2" cx="4373.79" cy="2738.75" r="369.43"/><circle class="cls-2" cx="529.26" cy="2663.02" r="194.74"/><circle class="cls-2" cx="453.51" cy="2723.99" r="119.12"/></g></svg>