<svg id="Layer_1" xmlns="http://www.w3.org/2000/svg" viewBox="0 0 238.1 234.2"><style>.st0{fill:#B30838;}</style><path class="st0" d="M17.9 59.8c-5.4 0-9.7-4.1-9.7-9.3 0-5.2 4.3-9.3 9.7-9.3 5.4 0 9.9 4.1 9.9 9.3 0 5.2-4.5 9.3-9.9 9.3zM10 102.5c-5.4 0-9.7-4.1-9.7-9.3 0-5.2 4.3-9.5 9.7-9.5 5.4 0 9.9 4.3 9.9 9.5s-4.5 9.3-9.9 9.3zM52.6 63c-7.1 0-12.8-5.7-12.8-12.5s5.8-12.3 12.8-12.3c6.9 0 12.7 5.5 12.7 12.3-.1 6.8-5.8 12.5-12.7 12.5zm-3.4 42.5c-7.1 0-12.8-5.7-12.8-12.3 0-6.8 5.8-12.3 12.8-12.3 6.9 0 13 5.5 13 12.3 0 6.6-6.2 12.3-13 12.3zm3.4-78.6c-5.4 0-9.9-4.5-9.9-9.6 0-5.2 4.5-9.3 9.9-9.3 5.2 0 9.7 4.1 9.7 9.3-.1 5.1-4.5 9.6-9.7 9.6zm44.3 82.9c-9.7 0-17.5-7.5-17.5-16.8 0-9.5 7.8-17 17.5-17 9.9 0 17.7 7.5 17.7 17 0 9.3-7.9 16.8-17.7 16.8zm0-50.2c-6.9 0-12.7-5.7-12.7-12.5S90 34.8 96.9 34.8c7.1 0 12.8 5.5 12.8 12.3 0 6.8-5.8 12.5-12.8 12.5zm0-40.7c-5.2 0-9.7-4.5-9.7-9.6 0-5.2 4.5-9.3 9.7-9.3 5.4 0 9.9 4.1 9.9 9.3-.1 5.2-4.5 9.6-9.9 9.6zM141.5 109.8c-9.9 0-17.7-7.5-17.7-16.8 0-9.5 7.8-17 17.7-17 9.7 0 17.5 7.5 17.5 17 0 9.3-7.8 16.8-17.5 16.8zm0-50.2c-7.1 0-12.8-5.7-12.8-12.5s5.8-12.3 12.8-12.3c6.9 0 12.7 5.5 12.7 12.3 0 6.8-5.8 12.5-12.7 12.5zm0-40.7c-5.4 0-9.9-4.5-9.9-9.6 0-5.2 4.5-9.3 9.9-9.3 5.2 0 9.7 4.1 9.7 9.3 0 5.2-4.4 9.6-9.7 9.6zm47.8 86.6c-6.9 0-13-5.7-13-12.3 0-6.8 6.1-12.3 13-12.3 7.1 0 12.8 5.5 12.8 12.3 0 6.6-5.8 12.3-12.8 12.3zM185.9 63c-6.9 0-12.7-5.7-12.7-12.5s5.8-12.3 12.7-12.3c7.1 0 12.8 5.5 12.8 12.3 0 6.8-5.8 12.5-12.8 12.5zm0-36.1c-5.2 0-9.7-4.5-9.7-9.6 0-5.2 4.5-9.3 9.7-9.3 5.4 0 9.9 4.1 9.9 9.3-.1 5.1-4.5 9.6-9.9 9.6zm34.6 32.9c-5.4 0-9.9-4.1-9.9-9.3 0-5.2 4.5-9.3 9.9-9.3s9.7 4.1 9.7 9.3c0 5.2-4.3 9.3-9.7 9.3zm7.9 42.7c-5.4 0-9.9-4.1-9.9-9.3 0-5.2 4.5-9.5 9.9-9.5s9.7 4.3 9.7 9.5-4.3 9.3-9.7 9.3z"/><g><path class="st0" d="M9.7 150.4c-5.4 0-9.7-4.3-9.7-9.5 0-5 4.3-9.3 9.7-9.3 5.4 0 9.9 4.3 9.9 9.3-.1 5.3-4.5 9.5-9.9 9.5zm7.9 42.8c-5.4 0-9.7-4.3-9.7-9.5s4.3-9.3 9.7-9.3c5.4 0 9.9 4.1 9.9 9.3 0 5.2-4.5 9.5-9.9 9.5zm31.2-39.9c-7.1 0-12.8-5.5-12.8-12.3 0-6.6 5.8-12.2 12.8-12.2 6.9 0 13 5.5 13 12.2.1 6.8-6.1 12.3-13 12.3zm3.5 42.7c-7.1 0-12.8-5.5-12.8-12.3 0-6.6 5.8-12.5 12.8-12.5 6.9 0 12.7 5.9 12.7 12.5-.1 6.8-5.9 12.3-12.7 12.3zm0 30.2c-5.4 0-9.9-4.1-9.9-9.3 0-5.2 4.5-9.5 9.9-9.5 5.2 0 9.7 4.3 9.7 9.5-.1 5.2-4.5 9.3-9.7 9.3zm44.3-68.1c-9.7 0-17.5-7.5-17.5-16.8 0-9.5 7.8-17 17.5-17 9.9 0 17.7 7.5 17.7 17-.1 9.3-7.9 16.8-17.7 16.8zm0 41.3c-6.9 0-12.7-5.5-12.7-12.3 0-6.6 5.8-12.5 12.7-12.5 7.1 0 12.8 5.9 12.8 12.5 0 6.8-5.8 12.3-12.8 12.3zm0 34.8c-5.2 0-9.7-4.1-9.7-9.3 0-5.2 4.5-9.5 9.7-9.5 5.4 0 9.9 4.3 9.9 9.5-.1 5.2-4.5 9.3-9.9 9.3zM141.2 158.1c-9.9 0-17.7-7.5-17.7-16.8 0-9.5 7.8-17 17.7-17 9.7 0 17.5 7.5 17.5 17 0 9.3-7.8 16.8-17.5 16.8zm0 41.3c-7.1 0-12.8-5.5-12.8-12.3 0-6.6 5.8-12.5 12.8-12.5 6.9 0 12.7 5.9 12.7 12.5 0 6.8-5.8 12.3-12.7 12.3zm0 34.8c-5.4 0-9.9-4.1-9.9-9.3 0-5.2 4.5-9.5 9.9-9.5 5.2 0 9.7 4.3 9.7 9.5s-4.5 9.3-9.7 9.3zm47.7-80.9c-6.9 0-13-5.5-13-12.3 0-6.6 6.1-12.2 13-12.2 7.1 0 12.8 5.5 12.8 12.2.1 6.8-5.7 12.3-12.8 12.3zm-3.4 42.7c-6.9 0-12.7-5.5-12.7-12.3 0-6.6 5.8-12.5 12.7-12.5 7.1 0 12.8 5.9 12.8 12.5.1 6.8-5.7 12.3-12.8 12.3zm0 30.2c-5.2 0-9.7-4.1-9.7-9.3 0-5.2 4.5-9.5 9.7-9.5 5.4 0 9.9 4.3 9.9 9.5s-4.5 9.3-9.9 9.3zm42.6-75.8c-5.4 0-9.9-4.3-9.9-9.5 0-5 4.5-9.3 9.9-9.3s9.7 4.3 9.7 9.3c0 5.3-4.3 9.5-9.7 9.5zm-7.9 42.8c-5.4 0-9.9-4.3-9.9-9.5s4.5-9.3 9.9-9.3 9.7 4.1 9.7 9.3c-.1 5.2-4.3 9.5-9.7 9.5z"/></g></svg>